<svg width="198" height="28" viewBox="0 0 198 28" fill="none" xmlns="http://www.w3.org/2000/svg">
<path d="M17.3737 12.0496C18.7737 12.0496 19.9075 9.75934 19.9075 6.93579V6.4716C19.9075 3.64805 18.7737 1.35776 17.3737 1.35776C15.9737 1.35776 14.8399 3.64805 14.8399 6.4716V6.93579C14.8399 9.75934 15.9737 12.0496 17.3737 12.0496Z" fill="#FF7F00"/>
<path d="M40.4018 14.4474C37.3319 20.6814 30.8913 24.9781 23.4402 24.9781C15.9891 24.9781 9.37111 20.5586 6.3552 14.1826L9.5948 13.1353L3.27758 9.17622L0.504639 16.0701L3.8368 14.9921C7.20752 22.4193 14.7164 27.5907 23.4402 27.5907C32.164 27.5907 39.268 22.6955 42.766 15.5906L40.4018 14.4435V14.4474Z" fill="#FF7F00"/>
<path d="M29.5106 11.432C30.91 11.432 32.0444 9.09091 32.0444 6.20305C32.0444 3.31519 30.91 0.974121 29.5106 0.974121C28.1112 0.974121 26.9768 3.31519 26.9768 6.20305C26.9768 9.09091 28.1112 11.432 29.5106 11.432Z" fill="#FF7F00"/>
<path d="M153.46 21.1264H134.215C134.022 21.1264 133.899 21.0804 133.845 20.996C133.791 20.9116 133.768 20.8003 133.768 20.6661V19.0893C133.768 18.9282 133.795 18.8131 133.845 18.7402C133.899 18.6673 134.022 18.629 134.215 18.629H142.26V14.3323C142.26 14.1711 142.291 14.0599 142.349 14.0023C142.407 13.9448 142.53 13.9141 142.708 13.9141H144.902C145.079 13.9141 145.199 13.9448 145.261 14.0023C145.319 14.0599 145.349 14.1711 145.349 14.3323V18.629H153.46C153.772 18.629 153.93 18.7824 153.93 19.0893V20.6661C153.93 20.973 153.772 21.1264 153.46 21.1264ZM136.591 15.1187C136.383 15.1916 136.24 15.2146 136.167 15.1839C136.093 15.1532 136.009 15.065 135.92 14.9192L135.044 13.3847C134.852 13.0471 134.886 12.8284 135.156 12.7248C136.248 12.3297 137.208 11.877 138.037 11.3668C138.866 10.8565 139.572 10.2772 140.154 9.63658C140.737 8.99207 141.196 8.27851 141.531 7.48823C141.867 6.69794 142.087 5.91533 142.191 4.93706C142.222 4.77593 142.264 4.66084 142.326 4.58795C142.384 4.51506 142.519 4.48437 142.731 4.49972L144.86 4.63015C145.13 4.66084 145.288 4.70688 145.342 4.7721C145.392 4.83732 145.403 4.97159 145.376 5.17875C145.346 5.58924 145.299 5.87696 145.241 6.24142C145.45 6.97032 145.781 7.65319 146.24 8.27851C146.695 8.90767 147.235 9.47545 147.864 9.98952C148.493 10.4998 149.179 10.9486 149.923 11.3361C150.672 11.7235 151.447 12.0343 152.253 12.2683C152.446 12.3259 152.55 12.3949 152.565 12.4755C152.581 12.556 152.542 12.6826 152.453 12.8591L151.647 14.4819C151.589 14.5701 151.551 14.6353 151.535 14.6775C151.52 14.7236 151.489 14.7504 151.447 14.7658C151.389 14.8118 151.269 14.8118 151.088 14.7658C150.432 14.62 149.761 14.3898 149.083 14.0752C148.404 13.7606 147.741 13.3924 147.1 12.9665C146.456 12.5407 145.858 12.0611 145.307 11.5202C144.755 10.9793 144.277 10.4038 143.872 9.79003C143.097 11.033 142.071 12.1033 140.802 13.001C139.534 13.8988 138.13 14.6046 136.591 15.1149V15.1187Z" fill="#FF7F00"/>
<path d="M175.25 21.1264H156.005C155.813 21.1264 155.689 21.0804 155.635 20.996C155.581 20.9077 155.558 20.7965 155.558 20.6661V19.0855C155.558 18.9244 155.585 18.8093 155.635 18.7364C155.689 18.6635 155.813 18.6251 156.005 18.6251H175.25C175.563 18.6251 175.721 18.7786 175.721 19.0855V20.6661C175.721 20.973 175.563 21.1264 175.25 21.1264ZM173.098 15.8668H158.13C157.803 15.8668 157.637 15.698 157.637 15.3642V13.8067C157.637 13.5305 157.803 13.3885 158.13 13.3885H160.618V7.47288H158.535C158.192 7.47288 158.019 7.31176 158.019 6.9895V5.42428C158.019 5.26315 158.069 5.14806 158.165 5.07517C158.262 5.00228 158.385 4.96392 158.535 4.96392H172.716C173.044 4.96392 173.21 5.11737 173.21 5.42428V7.01252C173.21 7.31943 173.044 7.47288 172.716 7.47288H170.611V13.3885H173.098C173.426 13.3885 173.592 13.5266 173.592 13.8067V15.3873C173.592 15.7095 173.426 15.8706 173.098 15.8706V15.8668ZM163.688 13.3885H167.541V7.47288H163.688V13.3885Z" fill="#FF7F00"/>
<path d="M197.025 21.1264H177.78C177.587 21.1264 177.464 21.0804 177.41 20.996C177.356 20.9116 177.333 20.7965 177.333 20.6661V19.0855C177.333 18.9244 177.36 18.8093 177.41 18.7364C177.464 18.6635 177.587 18.6251 177.78 18.6251H197.025C197.337 18.6251 197.495 18.7786 197.495 19.0855V20.6661C197.495 20.973 197.337 21.1264 197.025 21.1264ZM194.314 15.8668H181.922C181.267 15.8668 180.792 15.721 180.511 15.4295C180.225 15.1379 180.086 14.7005 180.086 14.1136V6.52914C180.086 5.89998 180.221 5.48566 180.491 5.2785C180.761 5.07517 181.209 4.97159 181.837 4.97159H194.206C194.491 4.97159 194.63 5.1097 194.63 5.38975V7.05472C194.63 7.21585 194.599 7.3271 194.541 7.38465C194.483 7.44219 194.368 7.47288 194.206 7.47288H183.608C183.353 7.47288 183.226 7.58797 183.226 7.82199V9.15704H193.889C194.202 9.15704 194.36 9.31049 194.36 9.6174V11.1519C194.36 11.4588 194.202 11.6123 193.889 11.6123H183.226V13.0394C183.226 13.2734 183.353 13.3885 183.608 13.3885H194.317C194.661 13.3885 194.834 13.5113 194.834 13.7606V15.4256C194.834 15.7172 194.661 15.863 194.317 15.863L194.314 15.8668Z" fill="#FF7F00"/>
<path d="M61.5711 18.3758C61.4515 18.5215 61.3165 18.5714 61.1661 18.5292C61.0157 18.487 60.846 18.3988 60.6493 18.2645C60.3948 18.088 60.1017 17.854 59.7662 17.5625C59.4306 17.2709 59.0797 16.9448 58.7133 16.588C58.3469 16.2312 57.9844 15.8514 57.6257 15.4486C57.267 15.0458 56.9469 14.6545 56.6615 14.2747C55.8979 15.2108 55.0495 16.097 54.1084 16.9371C53.1674 17.7773 52.1608 18.5331 51.0848 19.2044C50.9498 19.2926 50.8418 19.3272 50.7608 19.3157C50.6799 19.3003 50.5796 19.2198 50.46 19.074L49.4072 17.6929C49.2876 17.5318 49.2452 17.4052 49.2837 17.3093C49.3223 17.2134 49.4072 17.1251 49.5421 17.0369C50.4099 16.4538 51.2314 15.8016 52.0065 15.088C52.7817 14.3706 53.4952 13.6187 54.147 12.8323C54.7949 12.042 55.3696 11.2325 55.8594 10.4C56.353 9.56752 56.7348 8.74271 57.0009 7.91023C57.0896 7.61866 56.9778 7.47288 56.6654 7.47288H51.2198C51.0115 7.47288 50.8881 7.43068 50.8495 7.35012C50.811 7.26956 50.7917 7.1583 50.7917 7.00869V5.42044C50.7917 5.24397 50.8264 5.12504 50.892 5.05982C50.9575 4.99461 51.0732 4.96008 51.2391 4.96008H58.6323C59.2146 4.96008 59.6736 5.08284 60.0091 5.3322C60.3447 5.58157 60.5143 5.94602 60.5143 6.4294C60.5143 6.63272 60.4951 6.83221 60.4565 7.02019C60.4179 7.21201 60.3794 7.39232 60.3331 7.56879C60.1557 8.28619 59.8934 9.01509 59.5502 9.75934C59.2069 10.5036 58.7943 11.2594 58.3199 12.0151C58.6014 12.4525 58.9293 12.8783 59.2956 13.2849C59.662 13.6954 60.04 14.0829 60.4256 14.4589C60.8152 14.831 61.2008 15.1763 61.5904 15.4908C61.9799 15.8054 62.3308 16.0855 62.6432 16.3348C62.8978 16.5228 62.8901 16.7722 62.6201 17.0791L61.5672 18.3719L61.5711 18.3758ZM66.7004 24.3605H64.4597C64.2939 24.3605 64.182 24.3336 64.1242 24.2837C64.0625 24.2339 64.0355 24.1188 64.0355 23.9423V3.75547C64.0355 3.59434 64.0663 3.48692 64.1242 3.42554C64.182 3.368 64.2939 3.33731 64.4597 3.33731H66.7004C66.8663 3.33731 66.9781 3.368 67.036 3.42554C67.0938 3.48309 67.1247 3.59434 67.1247 3.75547V23.9423C67.1247 24.1188 67.0938 24.23 67.036 24.2837C66.9743 24.3336 66.8624 24.3605 66.7004 24.3605Z" fill="#FF7F00"/>
<path d="M83.2494 15.3719C82.5783 15.5023 81.8456 15.6174 81.0549 15.7133C80.2643 15.8093 79.4467 15.8898 78.6021 15.955C77.7575 16.0203 76.9129 16.0625 76.0683 16.0855C75.2237 16.1085 74.4138 16.1047 73.6386 16.074C73.3108 16.0586 73.0408 16.0241 72.8325 15.9627C72.6243 15.9052 72.4546 15.8169 72.3273 15.698C72.2 15.5829 72.1152 15.4295 72.0689 15.2376C72.0226 15.0497 72.0034 14.8156 72.0034 14.5356V10.2389C72.0034 9.77085 72.0998 9.45243 72.2965 9.28747C72.4893 9.11867 72.8248 9.03427 73.303 9.03427H78.1663C78.3013 9.03427 78.3861 9.01509 78.4247 8.98057C78.4633 8.9422 78.4787 8.86164 78.4787 8.72737V7.25805C78.4787 7.12761 78.4594 7.04321 78.4247 7.00485C78.3861 6.96649 78.3013 6.95114 78.1663 6.95114H72.4546C72.1538 6.95114 72.0072 6.81303 72.0072 6.53298V4.89103C72.0072 4.7299 72.0419 4.62632 72.1075 4.57261C72.173 4.52274 72.2887 4.49588 72.4546 4.49588H80.0484C80.3762 4.49588 80.6423 4.52274 80.8428 4.57261C81.0434 4.62248 81.1976 4.70688 81.3018 4.82581C81.4059 4.94473 81.4753 5.09435 81.5139 5.28617C81.5525 5.47799 81.5717 5.71584 81.5717 6.01124V9.80154C81.5717 10.4154 81.456 10.8258 81.2246 11.0292C80.9932 11.2325 80.6076 11.3361 80.0715 11.3361H75.3664C75.1735 11.3361 75.0733 11.432 75.0733 11.62V13.331C75.0733 13.519 75.1851 13.6149 75.4088 13.6149C76.7239 13.6456 78.012 13.6072 79.2732 13.5036C80.5343 13.4 81.7646 13.2542 82.9601 13.0663C83.1105 13.0356 83.207 13.0433 83.2532 13.0893C83.2995 13.1315 83.3342 13.212 83.3651 13.331L83.6119 14.9077C83.6428 15.0688 83.6312 15.1763 83.5772 15.2376C83.5232 15.2952 83.4152 15.3412 83.2532 15.3681L83.2494 15.3719ZM88.0895 24.3566H75.8793C75.2352 24.3566 74.8149 24.2492 74.6143 24.0267C74.4138 23.808 74.3135 23.3899 74.3135 22.776V18.3259C74.3135 18.0343 74.4716 17.8885 74.784 17.8885H76.9784C77.2754 17.8885 77.4258 18.0343 77.4258 18.3259V21.5254C77.4258 21.7441 77.5454 21.8553 77.7845 21.8553H88.0895C88.2091 21.8553 88.317 21.8822 88.4135 21.9321C88.5099 21.9819 88.56 22.0893 88.56 22.2505V23.9615C88.56 24.1648 88.5099 24.2837 88.4135 24.3106C88.317 24.3413 88.2091 24.3528 88.0895 24.3528V24.3566ZM87.6421 12.5215V17.9806C87.6421 18.1417 87.6151 18.253 87.565 18.3105C87.511 18.3681 87.403 18.3988 87.241 18.3988H84.9772C84.8113 18.3988 84.6956 18.3681 84.6301 18.3105C84.5645 18.253 84.5298 18.1417 84.5298 17.9806V3.75547C84.5298 3.47925 84.6802 3.33731 84.9772 3.33731H87.241C87.511 3.33731 87.646 3.47542 87.646 3.75547V10.024H90.4228C90.5423 10.024 90.6465 10.0394 90.7352 10.0662C90.8239 10.0969 90.8702 10.2044 90.8702 10.3962V12.1264C90.8702 12.2875 90.8277 12.3911 90.7467 12.4448C90.6658 12.4947 90.5578 12.5215 90.4228 12.5215H87.6421Z" fill="#FF7F00"/>
<path d="M103.983 18.3758C103.863 18.5215 103.728 18.5714 103.578 18.5292C103.427 18.487 103.258 18.3988 103.061 18.2645C102.807 18.088 102.513 17.854 102.178 17.5625C101.842 17.2709 101.491 16.9448 101.125 16.588C100.759 16.2312 100.396 15.8514 100.037 15.4486C99.6788 15.0458 99.3587 14.6545 99.0733 14.2747C98.3097 15.2108 97.4612 16.097 96.5202 16.9371C95.5791 17.7773 94.5726 18.5331 93.4965 19.2044C93.3616 19.2926 93.2536 19.3272 93.1726 19.3157C93.0916 19.3003 92.9913 19.2198 92.8718 19.074L91.8189 17.6929C91.6993 17.5318 91.6569 17.4052 91.6955 17.3093C91.734 17.2134 91.8189 17.1251 91.9539 17.0369C92.8216 16.4538 93.6431 15.8016 94.4183 15.088C95.1935 14.3706 95.907 13.6187 96.5587 12.8323C97.2067 12.042 97.7813 11.2325 98.2711 10.4C98.7647 9.56752 99.1466 8.74271 99.4127 7.91023C99.5014 7.61866 99.3895 7.47288 99.0771 7.47288H93.6315C93.4233 7.47288 93.2999 7.43068 93.2613 7.35012C93.2227 7.26956 93.2034 7.1583 93.2034 7.00869V5.42044C93.2034 5.24397 93.2381 5.12504 93.3037 5.05982C93.3693 4.99461 93.485 4.96008 93.6508 4.96008H101.044C101.626 4.96008 102.085 5.08284 102.421 5.3322C102.756 5.58157 102.926 5.94602 102.926 6.4294C102.926 6.63272 102.907 6.83221 102.868 7.02019C102.83 7.21201 102.791 7.39232 102.745 7.56879C102.567 8.28619 102.305 9.01509 101.962 9.75934C101.619 10.5036 101.206 11.2594 100.732 12.0151C101.013 12.4525 101.341 12.8783 101.707 13.2849C102.074 13.6954 102.452 14.0829 102.837 14.4589C103.227 14.831 103.613 15.1763 104.002 15.4908C104.392 15.8054 104.743 16.0855 105.055 16.3348C105.31 16.5228 105.302 16.7722 105.032 17.0791L103.979 18.3719L103.983 18.3758ZM109.112 24.3605H106.871C106.706 24.3605 106.594 24.3336 106.536 24.2837C106.474 24.2339 106.447 24.1188 106.447 23.9423V3.75547C106.447 3.59434 106.478 3.48692 106.536 3.42554C106.594 3.368 106.706 3.33731 106.871 3.33731H109.112C109.278 3.33731 109.39 3.368 109.448 3.42554C109.506 3.48309 109.536 3.59434 109.536 3.75547V23.9423C109.536 24.1188 109.506 24.23 109.448 24.2837C109.386 24.3336 109.274 24.3605 109.112 24.3605Z" fill="#FF7F00"/>
<path d="M131.67 21.1264H112.425C112.232 21.1264 112.109 21.0842 112.055 20.996C112.001 20.9077 111.978 20.8003 111.978 20.6661V19.0893C111.978 18.9282 112.005 18.8131 112.055 18.7402C112.109 18.6673 112.228 18.629 112.425 18.629H116.795V12.7555C116.795 12.5944 116.826 12.487 116.883 12.4256C116.941 12.3681 117.061 12.3374 117.242 12.3374H119.46C119.637 12.3374 119.757 12.3681 119.818 12.4256C119.876 12.4831 119.907 12.5944 119.907 12.7555V18.629H121.7V12.7555C121.7 12.5944 121.731 12.487 121.789 12.4256C121.847 12.3681 121.966 12.3374 122.148 12.3374H124.342C124.535 12.3374 124.662 12.3681 124.724 12.4256C124.782 12.4831 124.813 12.5944 124.813 12.7555V18.629H131.67C131.982 18.629 132.14 18.7824 132.14 19.0893V20.6661C132.14 20.973 131.982 21.1264 131.67 21.1264ZM129.117 15.3757C129.086 15.5944 129.036 15.7249 128.959 15.7709C128.885 15.8131 128.735 15.8208 128.511 15.7939L126.54 15.5983C126.301 15.5676 126.17 15.4985 126.147 15.3911C126.124 15.2837 126.128 15.1532 126.159 15.0075C126.263 14.4819 126.351 13.9141 126.429 13.308C126.502 12.7018 126.564 12.088 126.606 11.4665C126.652 10.845 126.679 10.2235 126.695 9.60205C126.71 8.98056 126.718 8.19028 126.718 7.61866C126.718 7.39999 126.683 7.2427 126.618 7.14679C126.552 7.05088 126.344 7.00485 126.001 7.00485H115.132C114.982 7.00485 114.862 6.98567 114.774 6.95114C114.685 6.91661 114.639 6.80152 114.639 6.60971V4.87952C114.639 4.71839 114.685 4.61481 114.774 4.57261C114.862 4.53041 114.982 4.50739 115.132 4.50739H128.237C128.773 4.50739 129.175 4.62632 129.437 4.86801C129.699 5.1097 129.83 5.53553 129.83 6.14934C129.83 8.07902 129.765 9.9972 129.63 11.5087C129.495 13.0202 129.325 14.3092 129.113 15.3757H129.117Z" fill="#FF7F00"/>
</svg>
