<svg width="16" height="16" viewBox="0 0 16 16" fill="none" xmlns="http://www.w3.org/2000/svg">
<g clip-path="url(#clip0_552_1428)">
<path d="M1.75 16C1.28587 16 0.840752 15.8156 0.512563 15.4874C0.184374 15.1592 0 14.7141 0 14.25L0 1.75C0 0.784 0.784 0 1.75 0H10.25C11.216 0 12 0.784 12 1.75V14.25C12 14.3347 11.994 14.418 11.982 14.5H14.25C14.3163 14.5 14.3799 14.4737 14.4268 14.4268C14.4737 14.3799 14.5 14.3163 14.5 14.25V8.285C14.5 8.24387 14.4899 8.20338 14.4706 8.16709C14.4512 8.13081 14.4232 8.09986 14.389 8.077L13.334 7.374C13.2521 7.31937 13.1817 7.24914 13.1269 7.1673C13.0721 7.08547 13.0339 6.99365 13.0146 6.89708C12.9953 6.80051 12.9952 6.70107 13.0143 6.60446C13.0334 6.50785 13.0714 6.41595 13.126 6.334C13.1806 6.25206 13.2509 6.18167 13.3327 6.12687C13.4145 6.07207 13.5063 6.03392 13.6029 6.01461C13.6995 5.99529 13.7989 5.99519 13.8955 6.0143C13.9922 6.03342 14.0841 6.07137 14.166 6.126L15.221 6.829C15.708 7.154 16 7.7 16 8.285V14.25C16 14.7141 15.8156 15.1592 15.4874 15.4874C15.1592 15.8156 14.7141 16 14.25 16H10.75C10.6835 15.9996 10.6173 15.9908 10.553 15.974C10.4543 15.9913 10.3533 16 10.25 16H7.25C7.05109 16 6.86032 15.921 6.71967 15.7803C6.57902 15.6397 6.5 15.4489 6.5 15.25V14H5.5V15.25C5.5 15.4489 5.42098 15.6397 5.28033 15.7803C5.13968 15.921 4.94891 16 4.75 16H1.75ZM1.5 14.25C1.5 14.388 1.612 14.5 1.75 14.5H4V13.25C4 13.0511 4.07902 12.8603 4.21967 12.7197C4.36032 12.579 4.55109 12.5 4.75 12.5H7.25C7.44891 12.5 7.63968 12.579 7.78033 12.7197C7.92098 12.8603 8 13.0511 8 13.25V14.5H10.25C10.3163 14.5 10.3799 14.4737 10.4268 14.4268C10.4737 14.3799 10.5 14.3163 10.5 14.25V1.75C10.5 1.6837 10.4737 1.62011 10.4268 1.57322C10.3799 1.52634 10.3163 1.5 10.25 1.5H1.75C1.6837 1.5 1.62011 1.52634 1.57322 1.57322C1.52634 1.62011 1.5 1.6837 1.5 1.75V14.25ZM3.75 6H4.25C4.44891 6 4.63968 6.07902 4.78033 6.21967C4.92098 6.36032 5 6.55109 5 6.75C5 6.94891 4.92098 7.13968 4.78033 7.28033C4.63968 7.42098 4.44891 7.5 4.25 7.5H3.75C3.55109 7.5 3.36032 7.42098 3.21967 7.28033C3.07902 7.13968 3 6.94891 3 6.75C3 6.55109 3.07902 6.36032 3.21967 6.21967C3.36032 6.07902 3.55109 6 3.75 6ZM3 3.75C3 3.55109 3.07902 3.36032 3.21967 3.21967C3.36032 3.07902 3.55109 3 3.75 3H4.25C4.44891 3 4.63968 3.07902 4.78033 3.21967C4.92098 3.36032 5 3.55109 5 3.75C5 3.94891 4.92098 4.13968 4.78033 4.28033C4.63968 4.42098 4.44891 4.5 4.25 4.5H3.75C3.55109 4.5 3.36032 4.42098 3.21967 4.28033C3.07902 4.13968 3 3.94891 3 3.75ZM7 6.75C7 6.55109 7.07902 6.36032 7.21967 6.21967C7.36032 6.07902 7.55109 6 7.75 6H8.25C8.44891 6 8.63968 6.07902 8.78033 6.21967C8.92098 6.36032 9 6.55109 9 6.75C9 6.94891 8.92098 7.13968 8.78033 7.28033C8.63968 7.42098 8.44891 7.5 8.25 7.5H7.75C7.55109 7.5 7.36032 7.42098 7.21967 7.28033C7.07902 7.13968 7 6.94891 7 6.75ZM7.75 3H8.25C8.44891 3 8.63968 3.07902 8.78033 3.21967C8.92098 3.36032 9 3.55109 9 3.75C9 3.94891 8.92098 4.13968 8.78033 4.28033C8.63968 4.42098 8.44891 4.5 8.25 4.5H7.75C7.55109 4.5 7.36032 4.42098 7.21967 4.28033C7.07902 4.13968 7 3.94891 7 3.75C7 3.55109 7.07902 3.36032 7.21967 3.21967C7.36032 3.07902 7.55109 3 7.75 3ZM3 9.75C3 9.55109 3.07902 9.36032 3.21967 9.21967C3.36032 9.07902 3.55109 9 3.75 9H4.25C4.44891 9 4.63968 9.07902 4.78033 9.21967C4.92098 9.36032 5 9.55109 5 9.75C5 9.94891 4.92098 10.1397 4.78033 10.2803C4.63968 10.421 4.44891 10.5 4.25 10.5H3.75C3.55109 10.5 3.36032 10.421 3.21967 10.2803C3.07902 10.1397 3 9.94891 3 9.75ZM7.75 9H8.25C8.44891 9 8.63968 9.07902 8.78033 9.21967C8.92098 9.36032 9 9.55109 9 9.75C9 9.94891 8.92098 10.1397 8.78033 10.2803C8.63968 10.421 8.44891 10.5 8.25 10.5H7.75C7.55109 10.5 7.36032 10.421 7.21967 10.2803C7.07902 10.1397 7 9.94891 7 9.75C7 9.55109 7.07902 9.36032 7.21967 9.21967C7.36032 9.07902 7.55109 9 7.75 9Z" fill="black"/>
</g>
<defs>
<clipPath id="clip0_552_1428">
<rect width="16" height="16" fill="white"/>
</clipPath>
</defs>
</svg>
