<svg width="18" height="16" viewBox="0 0 18 16" fill="none" xmlns="http://www.w3.org/2000/svg">
<path d="M4 13C3.65625 13 3.36208 12.8777 3.1175 12.6331C2.87292 12.3885 2.75042 12.0942 2.75 11.75V4.25C2.75 3.90625 2.8725 3.61208 3.1175 3.3675C3.3625 3.12292 3.65667 3.00042 4 3H7.75L9 4.25H14C14.3437 4.25 14.6381 4.3725 14.8831 4.6175C15.1281 4.8625 15.2504 5.15667 15.25 5.5V11.75C15.25 12.0937 15.1277 12.3881 14.8831 12.6331C14.6385 12.8781 14.3442 13.0004 14 13H4ZM4 11.75H14V5.5H8.48437L7.23437 4.25H4V11.75Z" fill="black"/>
</svg>
