<svg width="24" height="25" viewBox="0 0 24 25" fill="none" xmlns="http://www.w3.org/2000/svg">
<path d="M12 4.91863C12.7329 4.08821 13.8053 3.56445 15 3.56445C17.2091 3.56445 19 5.35531 19 7.56445C19 9.77359 17.2091 11.5645 15 11.5645C13.8053 11.5645 12.7329 11.0407 12 10.2103M15 21.5645H3V20.5645C3 17.2507 5.68629 14.5645 9 14.5645C12.3137 14.5645 15 17.2507 15 20.5645V21.5645ZM15 21.5645H21V20.5645C21 17.2507 18.3137 14.5645 15 14.5645C13.9071 14.5645 12.8825 14.8566 12 15.3671M13 7.56445C13 9.77359 11.2091 11.5645 9 11.5645C6.79086 11.5645 5 9.77359 5 7.56445C5 5.35531 6.79086 3.56445 9 3.56445C11.2091 3.56445 13 5.35531 13 7.56445Z" stroke="black" stroke-width="2" stroke-linecap="round" stroke-linejoin="round"/>
</svg>
