<svg width="18" height="19" viewBox="0 0 18 19" fill="none" xmlns="http://www.w3.org/2000/svg">
<path d="M5.34525 3.56038C5.34569 2.88122 5.54025 2.21635 5.90599 1.64409C6.27173 1.07183 6.79342 0.616033 7.40959 0.330403C8.02576 0.0447735 8.71073 -0.0587871 9.3838 0.0319235C10.0569 0.122634 10.69 0.403836 11.2086 0.842397C11.7271 1.28096 12.1095 1.8586 12.3107 2.50727C12.5119 3.15593 12.5235 3.84859 12.3442 4.50363C12.1648 5.15867 11.8019 5.74879 11.2983 6.20447C10.7947 6.66014 10.1714 6.96238 9.50173 7.07557V8.90443H13.0644C13.5369 8.90443 13.99 9.0921 14.324 9.42617C14.6581 9.76024 14.8458 10.2133 14.8458 10.6858V11.922C15.7269 12.0709 16.52 12.5454 17.0678 13.2514C17.6156 13.9575 17.8781 14.8435 17.8034 15.734C17.7287 16.6245 17.3222 17.4545 16.6644 18.0594C16.0066 18.6643 15.1456 19 14.252 19C13.3584 19 12.4974 18.6643 11.8396 18.0594C11.1818 17.4545 10.7753 16.6245 10.7006 15.734C10.6259 14.8435 10.8884 13.9575 11.4362 13.2514C11.984 12.5454 12.7771 12.0709 13.6582 11.922V10.6858C13.6582 10.5283 13.5957 10.3773 13.4843 10.2659C13.3729 10.1546 13.2219 10.092 13.0644 10.092H4.75146C4.59398 10.092 4.44295 10.1546 4.33159 10.2659C4.22024 10.3773 4.15768 10.5283 4.15768 10.6858V11.922C5.03882 12.0709 5.83186 12.5454 6.37966 13.2514C6.92745 13.9575 7.19001 14.8435 7.11531 15.734C7.0406 16.6245 6.63408 17.4545 5.97631 18.0594C5.31854 18.6643 4.45752 19 3.5639 19C2.67027 19 1.80925 18.6643 1.15148 18.0594C0.493709 17.4545 0.0871878 16.6245 0.0124822 15.734C-0.0622234 14.8435 0.200338 13.9575 0.748133 13.2514C1.29593 12.5454 2.08898 12.0709 2.97011 11.922V10.6858C2.97011 10.2133 3.15779 9.76024 3.49186 9.42617C3.82593 9.0921 4.27902 8.90443 4.75146 8.90443H8.31417V7.07557C7.48361 6.93518 6.72966 6.50505 6.18614 5.86153C5.64262 5.218 5.3447 4.40271 5.34525 3.56038Z" fill="#6B6B6C"/>
</svg>
